<?xml version="1.0" standalone="no"?>
<!DOCTYPE svg PUBLIC "-//W3C//DTD SVG 20010904//EN"
 "http://www.w3.org/TR/2001/REC-SVG-20010904/DTD/svg10.dtd">
<svg version="1.0" xmlns="http://www.w3.org/2000/svg"
 width="273.000000pt" height="273.000000pt" viewBox="0 0 273.000000 273.000000"
 preserveAspectRatio="xMidYMid meet">
<metadata>
Created by potrace 1.14, written by Peter Selinger 2001-2017
</metadata>
<g transform="translate(0.000000,273.000000) scale(0.100000,-0.100000)"
fill="#000000" stroke="none">
<path d="M1186 2719 c-479 -66 -902 -392 -1081 -832 -212 -519 -95 -1098 302
-1489 140 -139 291 -238 463 -304 574 -220 1216 -37 1584 451 119 158 203 342
247 545 31 138 33 398 5 530 -54 255 -157 465 -315 643 -204 229 -442 369
-746 437 -105 24 -352 34 -459 19z m449 -58 c532 -116 920 -511 1032 -1051 24
-118 24 -373 0 -489 -60 -279 -177 -501 -367 -691 -191 -190 -410 -307 -690
-366 -117 -25 -372 -25 -490 -1 -548 114 -943 509 -1057 1057 -12 61 -18 131
-18 245 0 172 14 262 62 410 160 494 590 843 1123 909 78 10 317 -4 405 -23z"/>
<path d="M1565 2325 c-33 -7 -105 -30 -160 -50 -378 -141 -690 -387 -820 -645
-106 -210 -50 -358 167 -446 32 -14 150 -49 261 -78 220 -59 274 -77 326 -112
24 -16 30 -25 20 -28 -113 -40 -252 -93 -315 -122 -216 -98 -365 -223 -381
-318 -7 -46 39 -98 102 -116 155 -43 482 86 625 247 66 74 93 141 88 218 l-4
62 261 69 c230 61 260 71 260 89 0 30 -36 29 -165 -5 -63 -16 -177 -46 -252
-66 l-138 -36 -49 36 c-74 54 -138 79 -340 130 -288 74 -376 112 -431 188 -82
113 -2 308 213 515 125 120 249 205 422 288 219 105 353 141 495 133 284 -17
261 -276 -54 -605 -50 -53 -108 -107 -128 -120 -55 -34 -48 -73 10 -58 39 10
239 216 305 316 103 156 136 256 116 352 -16 71 -81 138 -158 161 -65 19 -191
20 -276 1z m-141 -1421 c37 -96 -81 -254 -259 -346 -171 -88 -325 -119 -410
-84 -139 58 148 277 530 405 66 23 123 41 126 41 4 0 10 -7 13 -16z"/>
</g>
</svg>
