<?xml version="1.0" standalone="no"?>
<!DOCTYPE svg PUBLIC "-//W3C//DTD SVG 20010904//EN"
 "http://www.w3.org/TR/2001/REC-SVG-20010904/DTD/svg10.dtd">
<svg version="1.0" xmlns="http://www.w3.org/2000/svg"
 width="273.000000pt" height="273.000000pt" viewBox="0 0 273.000000 273.000000"
 preserveAspectRatio="xMidYMid meet">
<metadata>
Created by potrace 1.14, written by Peter Selinger 2001-2017
</metadata>
<g transform="translate(0.000000,273.000000) scale(0.100000,-0.100000)"
fill="#000000" stroke="none">
<path d="M1134 2714 c-274 -46 -531 -180 -734 -384 -265 -264 -400 -590 -400
-965 0 -223 44 -414 141 -608 71 -143 140 -238 259 -357 119 -119 214 -188
357 -259 194 -97 385 -141 608 -141 374 0 701 135 965 400 265 264 400 591
400 965 0 374 -135 701 -400 965 -206 207 -462 339 -742 385 -114 18 -343 18
-454 -1z m458 -50 c175 -28 356 -102 518 -209 96 -64 281 -249 345 -345 154
-232 226 -470 226 -745 0 -365 -127 -672 -386 -930 -259 -259 -566 -386 -930
-386 -365 0 -671 127 -930 386 -261 260 -386 562 -386 930 0 82 7 176 16 228
68 386 305 722 650 920 258 149 567 202 877 151z"/>
<path d="M1605 2336 c-498 -95 -1049 -540 -1073 -865 -6 -84 9 -131 57 -184
72 -80 149 -114 432 -187 188 -50 270 -77 314 -106 29 -19 26 -29 -12 -39
-111 -27 -385 -151 -480 -216 -149 -103 -214 -210 -167 -277 100 -144 540 -18
729 208 61 74 79 116 79 196 l0 70 146 38 c80 22 194 51 254 67 60 16 113 34
117 40 10 16 1 36 -18 43 -12 5 -446 -101 -532 -130 -7 -2 -28 9 -46 25 -57
50 -161 90 -378 146 -116 31 -241 69 -279 87 -73 33 -143 98 -154 143 -29 116
84 323 264 485 113 101 222 174 374 249 341 171 597 196 692 68 35 -48 29
-134 -17 -228 -66 -136 -226 -331 -331 -404 -59 -40 -68 -58 -38 -74 30 -16
81 17 184 122 155 156 271 346 285 468 22 187 -159 301 -402 255z m-182 -1455
c13 -63 -24 -131 -118 -219 -79 -74 -160 -121 -285 -163 -155 -53 -300 -43
-300 22 0 26 81 112 150 159 84 57 252 138 385 186 146 52 161 54 168 15z"/>
</g>
</svg>
