<?xml version="1.0" standalone="no"?>
<!DOCTYPE svg PUBLIC "-//W3C//DTD SVG 20010904//EN"
 "http://www.w3.org/TR/2001/REC-SVG-20010904/DTD/svg10.dtd">
<svg version="1.0" xmlns="http://www.w3.org/2000/svg"
 width="273.000000pt" height="273.000000pt" viewBox="0 0 273.000000 273.000000"
 preserveAspectRatio="xMidYMid meet">
<metadata>
Created by potrace 1.14, written by Peter Selinger 2001-2017
</metadata>
<g transform="translate(0.000000,273.000000) scale(0.100000,-0.100000)"
fill="#000000" stroke="none">
<path d="M1186 2719 c-479 -66 -902 -392 -1081 -832 -212 -519 -95 -1098 302
-1489 140 -139 291 -238 463 -304 574 -220 1216 -37 1584 451 119 158 203 342
247 545 31 138 33 398 5 530 -54 255 -157 465 -315 643 -204 229 -442 369
-746 437 -105 24 -352 34 -459 19z m449 -58 c532 -116 920 -511 1032 -1051 24
-118 24 -373 0 -489 -60 -279 -177 -501 -367 -691 -191 -190 -410 -307 -690
-366 -117 -25 -372 -25 -490 -1 -548 114 -943 509 -1057 1057 -12 61 -18 131
-18 245 0 172 14 262 62 410 160 494 590 843 1123 909 78 10 317 -4 405 -23z"/>
<path d="M1492 2475 c-412 -141 -892 -652 -895 -953 0 -73 22 -115 79 -152 60
-38 127 -48 399 -60 347 -16 470 -43 535 -117 23 -26 30 -43 30 -76 0 -77 -3
-80 -118 -126 -232 -93 -416 -208 -567 -353 -116 -111 -158 -178 -157 -245 2
-149 172 -159 375 -23 185 124 402 370 502 570 20 41 39 77 40 78 2 2 132 39
290 83 157 43 295 84 307 90 37 20 0 28 -61 12 -46 -12 -455 -123 -512 -139
-13 -4 -16 5 -16 48 0 135 -104 217 -321 253 -48 8 -192 19 -321 25 -230 11
-314 20 -349 39 -77 41 -72 137 17 306 167 320 657 705 898 705 88 0 118 -43
111 -157 -4 -58 -2 -73 9 -73 39 0 45 176 7 227 -49 68 -153 81 -282 38z m108
-1503 c0 -5 -16 -35 -36 -68 -122 -203 -378 -459 -537 -539 -81 -41 -132 -45
-165 -15 -49 46 -14 127 107 249 136 135 335 265 531 346 91 37 100 40 100 27z"/>
</g>
</svg>
