<?xml version="1.0" standalone="no"?>
<!DOCTYPE svg PUBLIC "-//W3C//DTD SVG 20010904//EN"
 "http://www.w3.org/TR/2001/REC-SVG-20010904/DTD/svg10.dtd">
<svg version="1.0" xmlns="http://www.w3.org/2000/svg"
 width="273.000000pt" height="273.000000pt" viewBox="0 0 273.000000 273.000000"
 preserveAspectRatio="xMidYMid meet">
<metadata>
Created by potrace 1.14, written by Peter Selinger 2001-2017
</metadata>
<g transform="translate(0.000000,273.000000) scale(0.100000,-0.100000)"
fill="#000000" stroke="none">
<path d="M1186 2719 c-479 -66 -902 -392 -1081 -832 -212 -519 -95 -1098 302
-1489 140 -139 291 -238 463 -304 574 -220 1216 -37 1584 451 119 158 203 342
247 545 31 138 33 398 5 530 -54 255 -157 465 -315 643 -204 229 -442 369
-746 437 -105 24 -352 34 -459 19z m449 -58 c532 -116 920 -511 1032 -1051 24
-118 24 -373 0 -489 -60 -279 -177 -501 -367 -691 -191 -190 -410 -307 -690
-366 -117 -25 -372 -25 -490 -1 -548 114 -943 509 -1057 1057 -12 61 -18 131
-18 245 0 172 14 262 62 410 160 494 590 843 1123 909 78 10 317 -4 405 -23z"/>
<path d="M1491 2444 c-67 -18 -188 -78 -272 -135 -330 -222 -600 -584 -602
-807 0 -70 21 -114 71 -147 61 -40 117 -48 457 -65 284 -14 406 -52 442 -138
12 -28 13 -48 7 -81 l-9 -43 -121 -53 c-216 -93 -373 -195 -510 -330 -114
-113 -148 -169 -148 -243 0 -49 3 -57 32 -83 27 -25 41 -29 87 -29 131 0 303
115 481 321 109 126 148 183 209 302 l52 102 229 66 c339 97 344 99 344 109 0
6 -11 10 -24 10 -19 0 -468 -122 -533 -145 -8 -2 -11 13 -11 49 1 93 -44 155
-149 203 -76 35 -182 52 -396 63 -322 16 -372 24 -413 65 -32 32 -31 75 2 173
52 157 193 350 370 506 167 148 316 239 448 273 131 35 182 -8 172 -145 -3
-53 -1 -72 7 -69 22 7 40 85 32 142 -15 126 -103 170 -254 129z m34 -1543
c-155 -263 -476 -561 -606 -561 -49 0 -84 39 -75 84 23 115 282 348 520 468
109 55 190 88 194 78 2 -4 -13 -35 -33 -69z"/>
</g>
</svg>
